# xmcd CD database file
#
# Track frame offsets:
#	150
#	19630
#	30965
#	47505
#	63475
#	80350
#	95790
#	108517
#	111840
#	147350
#	161560
#	178697
#
# Disc length: 2608 seconds
#
# Revision: 3
# Processed by: cddbd v1.4PL0 Copyright (c) Steve Scherf et al.
# Submitted via: CDex 1.40Beta9
#
DISCID=970a2e0c
DTITLE=Etta James - Come A Little Closer
DYEAR=1974
DGENRE=Blues
TTITLE0=Out On The Street Again
TTITLE1=Mama Told Me
TTITLE2=You Give Me What I Want
TTITLE3=Come A Little Closer
TTITLE4=Let's Burn Down The Cornfield
TTITLE5=Power Play
TTITLE6=Feeling Uneasy
TTITLE7=St. Louis Blues
TTITLE8=Gonna Have Some Fun Tonight
TTITLE9=Sookie Sookie
TTITLE10=Lovin' Arms
TTITLE11=Out On The Street Again (single edit)
EXTD=YEAR: 1974 ID3G: 0
EXTT0=
EXTT1=
EXTT2=
EXTT3=
EXTT4=
EXTT5=
EXTT6=
EXTT7=
EXTT8=
EXTT9=
EXTT10=
EXTT11=
PLAYORDER=
